<?xml version="1.0" standalone="no"?>
<svg xmlns:xlink="http://www.w3.org/1999/xlink" id="wave" style="transform:rotate(0deg); transition: 0.3s" viewBox="0 0 1440 490" version="1.1" xmlns="http://www.w3.org/2000/svg"><defs><linearGradient id="sw-gradient-0" x1="0" x2="0" y1="1" y2="0"><stop stop-color="rgba(240, 240, 255, 1)" offset="0%"/><stop stop-color="rgba(246.272, 246.272, 255, 1)" offset="100%"/></linearGradient></defs><path style="transform:translate(0, 0px); opacity:1" fill="url(#sw-gradient-0)" d="M0,147L60,130.7C120,114,240,82,360,81.7C480,82,600,114,720,179.7C840,245,960,343,1080,343C1200,343,1320,245,1440,212.3C1560,180,1680,212,1800,187.8C1920,163,2040,82,2160,49C2280,16,2400,33,2520,73.5C2640,114,2760,180,2880,236.8C3000,294,3120,343,3240,318.5C3360,294,3480,196,3600,163.3C3720,131,3840,163,3960,163.3C4080,163,4200,131,4320,106.2C4440,82,4560,65,4680,122.5C4800,180,4920,310,5040,367.5C5160,425,5280,408,5400,375.7C5520,343,5640,294,5760,236.8C5880,180,6000,114,6120,130.7C6240,147,6360,245,6480,277.7C6600,310,6720,278,6840,277.7C6960,278,7080,310,7200,294C7320,278,7440,212,7560,155.2C7680,98,7800,49,7920,24.5C8040,0,8160,0,8280,24.5C8400,49,8520,98,8580,122.5L8640,147L8640,490L8580,490C8520,490,8400,490,8280,490C8160,490,8040,490,7920,490C7800,490,7680,490,7560,490C7440,490,7320,490,7200,490C7080,490,6960,490,6840,490C6720,490,6600,490,6480,490C6360,490,6240,490,6120,490C6000,490,5880,490,5760,490C5640,490,5520,490,5400,490C5280,490,5160,490,5040,490C4920,490,4800,490,4680,490C4560,490,4440,490,4320,490C4200,490,4080,490,3960,490C3840,490,3720,490,3600,490C3480,490,3360,490,3240,490C3120,490,3000,490,2880,490C2760,490,2640,490,2520,490C2400,490,2280,490,2160,490C2040,490,1920,490,1800,490C1680,490,1560,490,1440,490C1320,490,1200,490,1080,490C960,490,840,490,720,490C600,490,480,490,360,490C240,490,120,490,60,490L0,490Z"/></svg>